<?xml version="1.0" standalone="no"?>
<!DOCTYPE svg PUBLIC "-//W3C//DTD SVG 20010904//EN"
 "http://www.w3.org/TR/2001/REC-SVG-20010904/DTD/svg10.dtd">
<svg version="1.0" xmlns="http://www.w3.org/2000/svg"
 width="500.000000pt" height="500.000000pt" viewBox="0 0 500.000000 500.000000"
 preserveAspectRatio="xMidYMid meet">
<metadata>
Created by potrace 1.14, written by Peter Selinger 2001-2017
</metadata>
<g transform="translate(0.000000,500.000000) scale(0.100000,-0.100000)"
fill="#000000" stroke="none">
<path d="M2159 4013 c-84 -47 -119 -94 -127 -173 -8 -77 -2 -110 27 -168 16
-32 19 -51 15 -86 -5 -30 -3 -46 4 -46 6 0 14 -10 18 -22 7 -25 62 -145 124
-274 22 -45 56 -105 76 -134 41 -59 102 -183 109 -221 3 -13 21 -54 40 -91 19
-38 33 -68 30 -68 -3 0 -1 -9 5 -21 12 -22 -4 -54 -21 -43 -5 3 -17 1 -26 -5
-13 -6 -29 -5 -53 5 -19 9 -36 15 -37 15 -2 0 -22 8 -45 18 -24 10 -77 28
-118 40 -112 33 -280 91 -318 108 -30 14 -37 14 -73 0 -36 -14 -47 -14 -112
-1 -41 9 -138 17 -222 18 l-150 3 -85 40 c-100 48 -160 69 -220 78 -134 20
-360 79 -360 94 0 5 -21 19 -47 31 -27 13 -42 25 -35 27 6 3 10 9 7 13 -8 13
37 80 53 80 23 0 91 40 102 59 5 11 10 31 10 44 0 26 -39 91 -55 93 -6 0 -23
6 -40 13 -36 15 -116 9 -165 -12 -126 -55 -127 -55 -216 -61 -78 -6 -111 -17
-161 -54 -40 -30 -79 -90 -74 -116 4 -24 167 -184 195 -192 48 -13 133 -50
155 -66 13 -10 36 -18 51 -18 15 0 33 -7 40 -15 7 -8 19 -15 28 -15 8 0 30 -9
48 -21 19 -11 34 -17 34 -14 0 4 7 2 15 -5 21 -17 76 -49 97 -56 10 -4 18 -10
18 -15 0 -5 4 -9 8 -9 4 0 59 -29 121 -65 128 -73 223 -107 361 -131 52 -9
100 -17 105 -19 54 -12 84 -21 171 -51 l100 -35 1 -49 c1 -26 9 -62 18 -79 12
-25 22 -31 50 -32 43 -2 40 -1 95 -27 25 -12 55 -22 67 -22 12 0 24 -4 27 -9
6 -9 116 -49 191 -70 22 -6 72 -13 110 -16 79 -5 123 -15 178 -38 21 -9 69
-19 107 -22 38 -3 80 -9 94 -14 13 -6 33 -7 45 -4 11 3 32 -2 46 -11 24 -16
24 -17 8 -52 -22 -44 -11 -65 43 -80 27 -7 43 -19 53 -40 17 -35 37 -51 75
-60 15 -3 48 -15 72 -26 24 -10 49 -16 54 -13 12 8 12 12 15 -110 1 -55 5
-109 8 -120 10 -33 21 -137 19 -183 -3 -60 25 -173 46 -188 13 -9 17 -23 15
-55 -1 -23 -4 -48 -7 -55 -5 -12 -124 -54 -165 -59 -33 -3 -71 -17 -71 -26 0
-10 -4 -10 110 -15 359 -16 440 -11 448 30 4 20 -25 56 -44 56 -12 0 -16 12
-28 92 -3 15 -7 32 -11 38 -4 6 2 25 13 43 20 33 19 62 -3 87 -15 18 -13 66 3
97 20 37 15 69 -14 82 l-27 12 22 23 c11 12 21 29 21 38 0 17 26 32 40 23 5
-3 29 4 55 15 l46 20 24 -26 c13 -14 40 -30 60 -35 20 -6 68 -35 107 -65 98
-76 160 -90 260 -60 31 9 70 19 85 22 24 5 97 33 200 79 32 14 33 14 40 -13
12 -51 54 -132 73 -142 10 -6 29 -10 42 -10 13 0 52 -7 88 -17 61 -15 68 -15
100 1 66 30 101 116 104 246 1 26 5 34 16 31 8 -2 49 -5 91 -6 66 -2 84 1 127
24 64 33 116 81 157 146 14 23 19 49 19 105 1 92 -23 143 -115 249 -63 72
-106 97 -140 80 -9 -5 -18 -7 -20 -5 -2 2 -26 7 -54 11 -27 3 -55 11 -63 17
-10 9 -20 8 -40 -4 -20 -12 -50 -15 -122 -13 -52 2 -96 4 -98 4 -1 1 2 10 8
20 7 14 6 35 -4 73 -7 29 -11 67 -9 84 6 41 -29 115 -65 136 -29 17 -110 33
-212 43 -67 7 -88 14 -113 40 -8 8 -29 17 -47 20 -18 3 -45 19 -60 35 -16 17
-37 30 -47 30 -27 0 -45 63 -37 123 4 29 2 58 -6 77 -10 25 -10 36 5 72 9 24
19 68 21 98 2 30 6 74 10 98 4 29 2 48 -7 59 -15 17 -17 41 -20 218 -2 105 -5
125 -26 161 -12 22 -23 48 -23 57 0 10 -5 17 -11 17 -7 0 -9 11 -6 26 4 21 -2
30 -35 52 -38 24 -41 25 -66 10 -16 -10 -36 -37 -49 -70 -12 -29 -31 -64 -43
-77 -12 -13 -31 -41 -43 -62 -12 -22 -31 -42 -42 -45 -11 -4 -23 -11 -26 -17
-11 -17 -81 -37 -98 -27 -27 14 -111 23 -111 12 0 -23 -43 -5 -137 60 -179
123 -287 195 -348 228 -33 18 -78 43 -100 55 -185 104 -266 139 -366 160 -9 2
-36 -8 -60 -22z m659 -600 c48 -20 110 -53 137 -73 28 -20 61 -43 75 -50 14
-7 27 -16 30 -19 3 -4 29 -22 59 -41 30 -19 59 -38 65 -42 5 -4 10 -19 11 -34
0 -31 13 -40 142 -104 93 -46 98 -46 113 -22 10 15 11 15 4 -3 -9 -26 -39
-117 -58 -182 -9 -28 -16 -61 -16 -72 0 -12 -4 -21 -10 -21 -5 0 -10 4 -10 9
0 9 -102 52 -118 50 -4 -1 -24 -1 -45 0 -29 1 -40 6 -47 24 -5 12 -38 53 -74
91 -36 38 -66 74 -66 80 0 6 -12 22 -26 35 -14 13 -23 30 -20 37 6 17 -31 64
-51 64 -11 0 -14 7 -10 26 3 19 -3 33 -28 57 -18 18 -35 44 -38 59 -4 14 -26
50 -49 78 -59 73 -72 90 -63 90 3 0 46 -16 93 -37z m-2248 -227 c0 -2 -7 -7
-16 -10 -8 -3 -12 -2 -9 4 6 10 25 14 25 6z"/>
</g>
</svg>
